<svg width="182" height="48" viewBox="0 0 182 48" fill="none" xmlns="http://www.w3.org/2000/svg">
<path d="M40.0004 43.9999H27.5304L19.2246 31.6094L31.4095 31.8499L40.0004 43.9999Z" fill="url(#paint0_linear_13922_4502)"/>
<path d="M40.0002 18.9556C40.0002 23.0782 38.3344 26.8228 35.642 29.5253C32.9495 32.2279 29.23 33.8998 25.1115 33.8998H20.8102L13.942 24.0515H25.0201C26.412 24.0515 27.6785 23.479 28.5912 22.5628C29.504 21.6467 30.0744 20.3756 30.0744 18.9785C30.0744 16.1844 27.8153 13.9055 25.0201 13.9055H19.0304L12.3675 4.38935L12.0938 4H25.1115C33.3373 4.01145 40.0002 10.6991 40.0002 18.9556Z" fill="url(#paint1_linear_13922_4502)"/>
<path d="M20.1369 18.9104H18.3799L7.98633 4.02344L9.76613 4.03489L20.1369 18.9104Z" fill="url(#paint2_linear_13922_4502)"/>
<path d="M12.1506 18.9104H10.3936L0 4.02344L1.7798 4.03489L12.1506 18.9104Z" fill="url(#paint3_linear_13922_4502)"/>
<path d="M16.1428 18.9104H14.3858L3.99219 4.02344L5.772 4.03489L16.1428 18.9104Z" fill="url(#paint4_linear_13922_4502)"/>
<path d="M61.14 20.0003L57.4 14.8203C58.84 14.1003 59.72 12.7403 59.72 11.0603C59.72 8.52031 57.72 6.80031 54.96 6.80031H50V20.0003H52.7V15.3403H54.68L58.1 20.0003H61.14ZM52.7 9.18031H54.96C56.18 9.18031 56.96 9.94031 56.96 11.0603C56.96 12.2003 56.22 12.9603 54.96 12.9603H52.7V9.18031ZM62.613 20.0003H65.313V10.1003H62.613V20.0003ZM62.233 6.50031C62.233 7.44031 62.993 8.16031 63.953 8.16031C64.913 8.16031 65.693 7.44031 65.693 6.50031C65.693 5.54031 64.913 4.82031 63.953 4.82031C62.993 4.82031 62.233 5.54031 62.233 6.50031ZM75.4441 10.1003V11.3403C74.7441 10.4003 73.6241 9.88031 72.2041 9.88031C69.5041 9.88031 67.4641 11.8403 67.4641 14.7803C67.4641 17.6803 69.4641 19.7003 72.2041 19.7003C73.4641 19.7003 74.5041 19.3003 75.2241 18.5203V19.0603C75.2241 20.6003 74.1841 21.4003 72.5841 21.4003C71.3841 21.4003 70.4641 20.9403 69.3641 20.1203L67.9441 22.0003C69.3241 23.2203 70.9441 23.8403 72.8041 23.8403C75.9041 23.8403 77.9241 22.1203 77.9241 18.9003V10.1003H75.4441ZM75.2641 14.7403C75.2641 16.4403 74.1241 17.4203 72.7641 17.4203C71.3241 17.4203 70.2041 16.3603 70.2041 14.7603C70.2041 13.1603 71.3041 12.1803 72.7641 12.1803C74.1441 12.1803 75.2641 13.0403 75.2641 14.7403ZM89.7013 15.9603C89.8212 15.4603 89.8813 14.9603 89.8813 14.4803C89.8813 11.9003 87.9613 9.88031 85.2213 9.88031C82.3613 9.82031 79.9813 12.2003 80.0413 15.0603C79.9813 17.9203 82.4013 20.3003 85.4613 20.2403C86.9213 20.2403 88.2413 19.7403 89.4213 18.7603L88.3013 16.9203C87.4413 17.5803 86.5213 17.9203 85.5413 17.9203C84.1013 17.9203 83.0813 17.2203 82.7613 15.9603H89.7013ZM82.7613 14.0603C83.0613 12.8403 83.9813 12.0603 85.1213 12.0603C86.3013 12.0603 87.2413 12.8403 87.2613 14.0603H82.7613ZM91.988 20.0003H94.688V5.00031H91.988V20.0003ZM103.145 20.0003H105.845V15.3403H108.105C110.865 15.3403 112.865 13.5803 112.865 11.0603C112.865 8.52031 110.865 6.80031 108.105 6.80031H103.145V20.0003ZM105.845 12.9803V9.18031H108.105C109.325 9.18031 110.105 9.94031 110.105 11.0603C110.105 12.2003 109.365 12.9803 108.105 12.9803H105.845ZM120.92 10.1003C120.66 10.0203 120.38 9.98031 120.04 9.98031C118.94 9.98031 117.98 10.4603 117.32 11.2803V10.1003H114.84V20.0003H117.54V15.0603C117.54 13.3603 118.58 12.4803 120.2 12.4803H120.92V10.1003ZM121.838 15.0403C121.778 17.8603 124.218 20.2803 127.118 20.2203C130.018 20.2803 132.518 17.8603 132.458 15.0403C132.518 12.2203 130.038 9.84031 127.138 9.88031C124.238 9.82031 121.778 12.2203 121.838 15.0403ZM129.698 15.0603C129.698 16.6003 128.598 17.7403 127.138 17.7403C125.638 17.7403 124.578 16.6003 124.578 15.0603C124.578 13.4803 125.638 12.3403 127.138 12.3403C128.598 12.3403 129.698 13.5203 129.698 15.0603ZM140.926 17.7403C140.226 17.8003 139.806 17.8203 139.646 17.8203C138.366 17.8203 137.806 17.4003 137.806 16.2803V12.3803H140.606V10.1003H137.806V7.60031H135.106V10.1003H133.546V12.3803H135.106V16.5203C135.106 19.0003 136.566 20.2403 139.066 20.2403C139.666 20.2403 140.286 20.1603 140.926 20.0003V17.7403ZM142.131 15.0403C142.071 17.8603 144.511 20.2803 147.411 20.2203C150.311 20.2803 152.811 17.8603 152.751 15.0403C152.811 12.2203 150.331 9.84031 147.431 9.88031C144.531 9.82031 142.071 12.2203 142.131 15.0403ZM149.991 15.0603C149.991 16.6003 148.891 17.7403 147.431 17.7403C145.931 17.7403 144.871 16.6003 144.871 15.0603C144.871 13.4803 145.931 12.3403 147.431 12.3403C148.891 12.3403 149.991 13.5203 149.991 15.0603ZM154.299 15.0403C154.259 17.9003 156.699 20.3003 159.599 20.2403C161.519 20.2403 163.039 19.3003 163.899 17.7803L162.019 16.3403C161.379 17.2403 160.659 17.7603 159.639 17.7603C158.119 17.7603 157.039 16.6203 157.039 15.0403C157.039 13.5003 158.119 12.3403 159.639 12.3403C160.679 12.3403 161.399 12.8803 162.019 13.7803L163.899 12.3203C163.039 10.8003 161.539 9.88031 159.599 9.88031C156.659 9.88031 154.299 12.1403 154.299 15.0403ZM165.139 15.0403C165.079 17.8603 167.519 20.2803 170.419 20.2203C173.319 20.2803 175.819 17.8603 175.759 15.0403C175.819 12.2203 173.339 9.84031 170.439 9.88031C167.539 9.82031 165.079 12.2203 165.139 15.0403ZM172.999 15.0603C172.999 16.6003 171.899 17.7403 170.439 17.7403C168.939 17.7403 167.879 16.6003 167.879 15.0603C167.879 13.4803 168.939 12.3403 170.439 12.3403C171.899 12.3403 172.999 13.5203 172.999 15.0603ZM177.867 20.0003H180.567V5.00031H177.867V20.0003Z" fill="#F1F5F8"/>
<path d="M50.9961 39.5H55.8921V38.36H52.2681V31.58H50.9961V39.5Z" fill="#4CAFFF"/>
<path d="M61.7679 35.936C61.7679 34.352 60.8079 33.476 59.3559 33.476C58.3359 33.476 57.4599 33.884 56.8719 34.736L57.6039 35.48C58.0959 34.892 58.5759 34.604 59.2359 34.604C60.0399 34.604 60.4959 35.048 60.4959 35.864V36.248H58.8279C57.4959 36.248 56.6559 36.908 56.6559 37.928C56.6559 38.948 57.4719 39.632 58.7079 39.632C59.5119 39.632 60.1599 39.356 60.5919 38.84V39.5H61.7679V35.936ZM60.4959 37.268C60.4959 38.072 59.8239 38.66 58.9719 38.66C58.3599 38.66 57.9399 38.372 57.9399 37.88C57.9399 37.4 58.3119 37.16 58.9839 37.16H60.4959V37.268Z" fill="#4CAFFF"/>
<path d="M63.4615 37.028C63.4615 38.612 64.5655 39.632 66.0415 39.632C67.4815 39.632 68.5975 38.612 68.5975 37.028V33.608H67.3375V37.124C67.3375 37.94 66.7735 38.468 66.0415 38.468C65.2735 38.468 64.7095 37.94 64.7095 37.124V33.608H63.4615V37.028Z" fill="#4CAFFF"/>
<path d="M75.5132 35.816C75.5132 34.412 74.6852 33.476 73.3052 33.476C72.5732 33.476 71.9852 33.716 71.5412 34.184V33.608H70.3652V39.5H71.6252V35.984C71.6252 35.18 72.1892 34.616 72.9692 34.616C73.7372 34.616 74.2532 35.168 74.2532 35.984V39.5H75.5132V35.816Z" fill="#4CAFFF"/>
<path d="M76.8956 36.548C76.8956 38.264 78.2756 39.632 80.0156 39.632C81.0836 39.632 81.9716 39.116 82.4996 38.264L81.6116 37.58C81.1796 38.168 80.6516 38.468 80.0276 38.468C78.9716 38.468 78.1796 37.628 78.1796 36.548C78.1796 35.48 78.9716 34.64 80.0276 34.64C80.6636 34.64 81.1916 34.94 81.6116 35.54L82.4996 34.844C81.9836 33.992 81.1076 33.476 80.0156 33.476C78.3236 33.452 76.8596 34.856 76.8956 36.548Z" fill="#4CAFFF"/>
<path d="M89.0367 35.816C89.0367 34.424 88.1967 33.476 86.8527 33.476C86.1447 33.476 85.5447 33.728 85.1487 34.196V30.5H83.8887V39.5H85.1487V35.996C85.1487 35.192 85.7127 34.628 86.4927 34.628C87.2727 34.628 87.7767 35.18 87.7767 35.996V39.5H89.0367V35.816Z" fill="#4CAFFF"/>
<path d="M90.875 39.5H92.147V36.44H93.767C95.363 36.44 96.455 35.42 96.455 34.004C96.455 32.576 95.363 31.58 93.767 31.58H90.875V39.5ZM92.147 35.312V32.708H93.743C94.643 32.708 95.147 33.236 95.147 34.016C95.147 34.796 94.643 35.312 93.743 35.312H92.147Z" fill="#4CAFFF"/>
<path d="M102.338 35.936C102.338 34.352 101.378 33.476 99.9262 33.476C98.9062 33.476 98.0302 33.884 97.4422 34.736L98.1742 35.48C98.6662 34.892 99.1462 34.604 99.8062 34.604C100.61 34.604 101.066 35.048 101.066 35.864V36.248H99.3982C98.0662 36.248 97.2262 36.908 97.2262 37.928C97.2262 38.948 98.0422 39.632 99.2782 39.632C100.082 39.632 100.73 39.356 101.162 38.84V39.5H102.338V35.936ZM101.066 37.268C101.066 38.072 100.394 38.66 99.5422 38.66C98.9302 38.66 98.5102 38.372 98.5102 37.88C98.5102 37.4 98.8822 37.16 99.5542 37.16H101.066V37.268Z" fill="#4CAFFF"/>
<path d="M108.568 30.5V34.328C108.124 33.788 107.416 33.476 106.6 33.476C104.968 33.44 103.684 34.844 103.72 36.56C103.72 38.3 104.944 39.632 106.6 39.632C107.476 39.632 108.232 39.272 108.664 38.66V39.5H109.84V30.5H108.568ZM108.592 36.56C108.592 37.844 107.74 38.48 106.816 38.48C105.772 38.48 105.004 37.676 105.004 36.548C105.004 35.42 105.808 34.628 106.816 34.628C107.728 34.628 108.592 35.288 108.592 36.56Z" fill="#4CAFFF"/>
<defs>
<linearGradient id="paint0_linear_13922_4502" x1="52.4934" y1="37.4827" x2="2.59473" y2="38.1793" gradientUnits="userSpaceOnUse">
<stop stop-color="#40BAD5"/>
<stop offset="1" stop-color="#035AA6"/>
</linearGradient>
<linearGradient id="paint1_linear_13922_4502" x1="31.3081" y1="33.1528" x2="21.5725" y2="4.4047" gradientUnits="userSpaceOnUse">
<stop stop-color="#40BAD5"/>
<stop offset="1" stop-color="#035AA6"/>
</linearGradient>
<linearGradient id="paint2_linear_13922_4502" x1="27.7218" y1="32.0261" x2="8.28028" y2="2.97186" gradientUnits="userSpaceOnUse">
<stop stop-color="#40BAD5"/>
<stop offset="1" stop-color="#035AA6"/>
</linearGradient>
<linearGradient id="paint3_linear_13922_4502" x1="22.1928" y1="35.7258" x2="2.75127" y2="6.67157" gradientUnits="userSpaceOnUse">
<stop stop-color="#40BAD5"/>
<stop offset="1" stop-color="#035AA6"/>
</linearGradient>
<linearGradient id="paint4_linear_13922_4502" x1="24.9563" y1="33.8759" x2="5.51479" y2="4.82172" gradientUnits="userSpaceOnUse">
<stop stop-color="#40BAD5"/>
<stop offset="1" stop-color="#035AA6"/>
</linearGradient>
</defs>
</svg>
